<?xml version="1.0" encoding="UTF-8" standalone="no"?>
<svg width="74px" height="33px" viewBox="0 0 74 33" version="1.1" xmlns="http://www.w3.org/2000/svg" xmlns:xlink="http://www.w3.org/1999/xlink" xmlns:sketch="http://www.bohemiancoding.com/sketch/ns">
    <!-- Generator: Sketch 3.3 (11970) - http://www.bohemiancoding.com/sketch -->
    <title>Icon Shape + F + 文库 + 纷印 + fenyin.me + 纷印</title>
    <desc>Created with Sketch.</desc>
    <defs></defs>
    <g id="立即纷印" stroke="none" stroke-width="1" fill="none" fill-rule="evenodd" sketch:type="MSPage">
        <g id="elements" sketch:type="MSArtboardGroup" transform="translate(-119.000000, -32.000000)" fill="#008AFF">
            <g id="Icon-Shape-+-F-+-文库-+-纷印-+-fenyin.me-+-纷印" sketch:type="MSLayerGroup" transform="translate(108.000000, 21.000000)">
                <g id="Icon-Shape-+-F-+-文库-+-纷印-+-fenyin.me" transform="translate(0.182974, 0.000000)" sketch:type="MSShapeGroup">
                    <g id="Icon-Shape-+-F-+-文库">
                        <g id="Icon-Shape-+-F-+-Icon-Shape-+-F-2">
                            <g id="Icon-Shape-+-F">
                                <g id="Group" transform="translate(11.740600, 11.588807)">
                                    <g id="kuang">
                                        <path d="M1.09548468,0.0561443913 L8.92712119,0.0561443913 L8.92712119,2.17340823 L2.15161824,2.17340823 L2.15161824,14.4779685 L0.03935113,14.4779685 L0.03935113,0.0561443913 L1.09548468,0.0561443913 Z M0.03935113,25.7076102 L0.03935113,26.7662421 L26.6864131,26.7662421 L26.6864131,25.7076102 L26.6864131,1.11477631 L26.6864131,0.0561443913 L12.2742521,0.0561443913 L12.2742521,2.17340823 L24.574146,2.17340823 L24.574146,24.6489783 L24.574146,24.6489783 L2.15161824,24.6489783 L2.15161824,17.8574473 L0.03935113,17.8574473 L0.03935113,25.7076102 L0.03935113,25.7076102 Z M2.15161824,6.20842452 L7.64351272,6.20842452 L7.64351272,8.32568837 L2.15161824,8.32568837 L2.15161824,6.20842452 Z" id="Rectangle-52"></path>
                                    </g>
                                    <g id="shuqian" transform="translate(24.574146, 28.069174)">
                                        <path d="M1.47858697,0 L2.11226711,0 L2.11226711,3.42019544 L1.47858697,3.001396 L1.47858697,0 Z" id="Rectangle-110"></path>
                                        <path d="M0.633680132,0 L1.47858697,0 L1.47858697,3.001396 L1.05613355,2.72219637 L0.633680132,3.001396 L0.633680132,0 Z" id="Rectangle-111"></path>
                                        <path d="M0,0 L0.633680132,0 L0.633680132,3.001396 L0,3.42019544 L0,0 Z" id="Rectangle-112"></path>
                                    </g>
                                </g>
                            </g>
                        </g>
                    </g>
                </g>
                <path d="M49.6663058,26.38 C51.2663058,24.62 52.8663058,22.44 54.2463058,20.24 L52.9863058,19.48 C52.5863058,20.22 52.1263058,20.96 51.6663058,21.68 L48.9463058,21.92 C50.1663058,20.22 51.3663058,18 52.3063058,15.88 L50.8863058,15.3 C50.0063058,17.72 48.5263058,20.28 48.0463058,20.94 C47.6263058,21.62 47.2663058,22.08 46.9063058,22.16 C47.0663058,22.56 47.3063058,23.24 47.3863058,23.56 C47.6863058,23.4 48.1663058,23.3 50.7463058,23 C49.8263058,24.28 48.9863058,25.26 48.6263058,25.66 C47.9663058,26.38 47.4863058,26.88 47.0463058,26.96 C47.2063058,27.34 47.4463058,28.02 47.5263058,28.32 C47.9463058,28.08 48.6463058,27.9 53.9463058,26.96 C53.8863058,26.66 53.8263058,26.08 53.8463058,25.7 L49.6663058,26.38 Z M53.8463058,29.32 C51.3063058,29.94 48.6863058,30.58 46.9463058,30.94 L47.2463058,32.4 L54.0463058,30.64 L53.8463058,29.32 Z M60.4663058,15.92 C61.0863058,19.12 61.9863058,21.32 63.6063058,23.22 L55.6863058,23.22 C57.2663058,21.4 58.2463058,18.92 58.7863058,16.06 L57.3663058,15.82 C56.8263058,18.8 55.7663058,21.24 53.8863058,22.78 C54.1263058,23.14 54.4663058,23.94 54.5663058,24.32 C54.9263058,24 55.2863058,23.68 55.6063058,23.32 L55.6063058,24.62 L57.7463058,24.62 C57.3263058,28.38 56.1663058,30.96 53.4863058,32.48 C53.7863058,32.72 54.3063058,33.28 54.4863058,33.58 C57.3463058,31.74 58.6863058,28.92 59.1863058,24.62 L62.1463058,24.62 C61.9063058,29.52 61.6463058,31.36 61.2263058,31.82 C61.0463058,32.04 60.8663058,32.08 60.5463058,32.08 C60.2263058,32.08 59.4463058,32.06 58.5863058,31.98 C58.8063058,32.38 58.9463058,32.94 58.9663058,33.36 C59.8463058,33.42 60.7063058,33.42 61.2263058,33.36 C61.7663058,33.32 62.1263058,33.16 62.4863058,32.72 C63.0663058,32.02 63.3263058,29.9 63.6063058,23.92 C63.6263058,23.74 63.6263058,23.32 63.6263058,23.24 C63.8663058,23.52 64.1263058,23.8 64.4063058,24.06 C64.6063058,23.64 65.0663058,23.16 65.4463058,22.86 C63.4663058,21.08 62.4663058,19.02 61.7663058,15.68 L60.4663058,15.92 Z M69.7463058,29.12 L69.7463058,23.78 L75.2463058,23.78 L75.2463058,22.34 L69.7463058,22.34 L69.7463058,18.62 C71.6463058,18.16 73.7063058,17.58 75.2263058,16.92 L74.0463058,15.74 C72.6863058,16.42 70.3263058,17.18 68.2463058,17.66 L68.2463058,28.4 C68.2463058,29.18 67.7463058,29.54 67.3863058,29.72 C67.6463058,30.12 67.9463058,30.9 68.0463058,31.26 C68.5463058,30.98 69.3063058,30.72 75.2663058,29.18 C75.2063058,28.86 75.1663058,28.24 75.1863058,27.8 L69.7463058,29.12 Z M84.3263058,16.74 L76.8063058,16.74 L76.8063058,33.56 L78.2663058,33.56 L78.2663058,18.2 L82.8663058,18.2 L82.8663058,28.56 C82.8663058,28.86 82.7663058,28.96 82.4463058,28.98 C82.1263058,28.98 81.0263058,29 79.8063058,28.94 C80.0463058,29.36 80.3063058,30.1 80.3863058,30.52 C81.8663058,30.52 82.9063058,30.5 83.5263058,30.22 C84.1463058,29.96 84.3263058,29.44 84.3263058,28.58 L84.3263058,16.74 Z" id="纷印" sketch:type="MSShapeGroup"></path>
            </g>
        </g>
    </g>
</svg>